<?xml version="1.0" standalone="no"?>
<!DOCTYPE svg PUBLIC "-//W3C//DTD SVG 20010904//EN"
 "http://www.w3.org/TR/2001/REC-SVG-20010904/DTD/svg10.dtd">
<svg version="1.0" xmlns="http://www.w3.org/2000/svg"
 width="894.000000pt" height="894.000000pt" viewBox="0 0 894.000000 894.000000"
 preserveAspectRatio="xMidYMid meet">

<g transform="translate(0.000000,894.000000) scale(0.100000,-0.100000)"
fill="#000000" stroke="none">
<path d="M4445 8622 c-98 -20 -80 -172 20 -172 96 0 119 137 28 167 -16 5 -37
7 -48 5z"/>
<path d="M4030 8505 c0 -14 5 -25 10 -25 6 0 10 11 10 25 0 14 -4 25 -10 25
-5 0 -10 -11 -10 -25z"/>
<path d="M4880 8505 c0 -14 5 -25 10 -25 6 0 10 11 10 25 0 14 -4 25 -10 25
-5 0 -10 -11 -10 -25z"/>
<path d="M3612 8447 c2 -15 8 -26 13 -25 12 3 8 29 -7 43 -6 7 -8 1 -6 -18z"/>
<path d="M5308 8464 c-5 -4 -8 -19 -8 -33 0 -18 3 -22 11 -14 6 6 9 21 7 33
-1 12 -6 18 -10 14z"/>
<path d="M3202 8337 c2 -15 8 -26 13 -25 12 3 8 29 -7 43 -6 7 -8 1 -6 -18z"/>
<path d="M5711 8338 c-9 -24 -5 -42 8 -33 13 8 20 44 10 51 -5 3 -13 -5 -18
-18z"/>
<path d="M4277 8301 c-16 -21 -55 -56 -88 -77 -55 -35 -59 -40 -59 -76 0 -36
1 -37 27 -27 14 5 46 23 70 39 24 17 46 30 48 30 3 0 6 -105 7 -232 l3 -233
35 0 35 0 3 308 2 307 -27 0 c-21 0 -36 -11 -56 -39z"/>
<path d="M4565 8329 c-53 -16 -97 -65 -115 -128 -7 -26 -5 -33 10 -41 29 -15
60 -12 66 8 26 80 52 102 124 102 33 0 48 -6 71 -29 64 -64 29 -148 -112 -267
-50 -42 -108 -99 -129 -125 -37 -47 -59 -103 -45 -117 8 -9 350 -15 382 -7 18
4 23 12 23 40 l0 34 -142 3 c-81 2 -143 7 -143 12 0 6 49 53 108 105 118 105
163 164 173 226 6 44 -12 103 -44 139 -42 48 -149 69 -227 45z"/>
<path d="M2800 8188 c0 -19 18 -43 25 -36 9 9 -4 48 -16 48 -5 0 -9 -6 -9 -12z"/>
<path d="M6105 8179 c-4 -11 -4 -23 0 -27 7 -7 25 17 25 36 0 20 -18 14 -25
-9z"/>
<path d="M2394 8070 c-52 -21 -69 -88 -34 -133 42 -53 124 -40 150 23 11 27
11 37 -3 66 -23 46 -66 63 -113 44z"/>
<path d="M6435 8045 c-17 -16 -25 -35 -25 -60 0 -25 8 -44 25 -60 16 -17 35
-25 60 -25 25 0 44 8 60 25 17 16 25 35 25 60 0 25 -8 44 -25 60 -16 17 -35
25 -60 25 -25 0 -44 -8 -60 -25z"/>
<path d="M6302 7794 c-13 -20 -52 -54 -88 -77 -58 -37 -64 -44 -64 -74 0 -44
20 -43 90 1 l55 35 3 -230 2 -229 40 0 40 0 0 305 0 305 -27 0 c-21 0 -34 -9
-51 -36z"/>
<path d="M2060 7766 c0 -16 28 -42 36 -33 7 6 -18 47 -28 47 -5 0 -8 -6 -8
-14z"/>
<path d="M2635 7753 c-25 -37 -72 -80 -122 -110 -37 -21 -43 -30 -43 -59 0
-43 11 -43 84 1 32 19 60 35 62 35 2 0 5 -102 6 -227 l3 -228 38 -3 37 -3 0
310 0 311 -24 0 c-15 0 -30 -10 -41 -27z"/>
<path d="M2980 7728 c-24 -28 -66 -64 -92 -80 -42 -26 -48 -34 -48 -64 0 -43
11 -43 84 1 32 19 60 35 62 35 2 0 4 -103 4 -230 l0 -230 40 0 40 0 0 310 0
310 -22 0 c-15 -1 -39 -20 -68 -52z"/>
<path d="M6846 7761 c-11 -12 -16 -24 -12 -28 9 -9 39 22 34 37 -2 7 -10 4
-22 -9z"/>
<path d="M1730 7496 c0 -16 28 -42 36 -33 7 6 -18 47 -28 47 -5 0 -8 -6 -8
-14z"/>
<path d="M7176 7491 c-11 -12 -16 -24 -12 -28 9 -9 39 22 34 37 -2 7 -10 4
-22 -9z"/>
<path d="M1430 7195 c0 -8 9 -19 20 -25 15 -8 20 -8 20 2 0 7 -9 19 -20 26
-17 10 -20 10 -20 -3z"/>
<path d="M7475 7190 c-25 -27 -10 -39 16 -13 12 11 17 23 11 27 -5 3 -17 -3
-27 -14z"/>
<path d="M7746 6865 c-10 -8 -16 -18 -15 -24 2 -6 14 -2 28 8 13 10 20 21 15
24 -5 3 -18 -1 -28 -8z"/>
<path d="M1160 6862 c0 -11 37 -32 44 -25 8 9 -14 33 -30 33 -8 0 -14 -3 -14
-8z"/>
<path d="M923 6582 c-60 -9 -84 -104 -37 -147 56 -52 144 -16 144 58 0 60 -46
98 -107 89z"/>
<path d="M7927 6570 c-76 -60 -9 -181 82 -149 64 22 79 92 32 140 -35 35 -77
38 -114 9z"/>
<path d="M7498 6536 c-60 -21 -84 -42 -108 -90 -29 -61 -24 -80 21 -84 34 -3
36 -1 48 38 19 65 87 95 154 67 43 -19 72 -67 63 -109 -8 -39 -59 -109 -108
-149 -137 -109 -208 -196 -208 -254 l0 -25 200 0 200 0 0 40 0 40 -147 0 -148
0 60 57 c169 158 199 190 216 227 70 155 -77 301 -243 242z"/>
<path d="M1346 6443 c-22 -25 -64 -61 -93 -80 -43 -27 -53 -39 -53 -62 0 -15
3 -30 6 -34 9 -8 51 9 100 43 l44 29 2 -232 3 -232 38 -3 37 -3 0 310 0 311
-22 0 c-15 -1 -38 -18 -62 -47z"/>
<path d="M1645 6476 c-16 -8 -42 -26 -57 -42 -47 -51 -61 -98 -66 -231 -6
-153 17 -242 73 -292 85 -74 211 -59 271 33 39 59 48 106 48 236 -1 132 -13
182 -55 242 -42 58 -145 84 -214 54z m134 -81 c41 -35 54 -101 49 -250 -4
-135 -18 -174 -69 -200 -52 -28 -104 -4 -140 65 -18 35 -24 223 -9 295 22 107
99 148 169 90z"/>
<path d="M735 6131 c-3 -6 3 -15 14 -20 24 -14 31 -14 31 -1 0 14 -38 32 -45
21z"/>
<path d="M8164 6126 c-10 -8 -16 -17 -12 -21 8 -8 48 13 48 25 0 14 -13 12
-36 -4z"/>
<path d="M582 5729 c5 -17 48 -25 48 -10 0 6 -4 11 -9 11 -5 0 -17 3 -27 7
-12 4 -15 2 -12 -8z"/>
<path d="M8318 5733 c-10 -2 -18 -9 -18 -14 0 -15 43 -7 48 9 4 12 0 13 -30 5z"/>
<path d="M472 5319 c5 -17 48 -25 48 -10 0 6 -4 11 -9 11 -5 0 -17 3 -27 7
-12 4 -15 2 -12 -8z"/>
<path d="M8428 5323 c-10 -2 -18 -9 -18 -14 0 -15 43 -7 48 9 4 12 0 13 -30 5z"/>
<path d="M406 4902 c-10 -9 5 -22 24 -22 29 0 33 17 5 22 -13 3 -27 3 -29 0z"/>
<path d="M8498 4903 c-10 -3 -18 -9 -18 -14 0 -12 37 -12 45 0 7 12 -5 19 -27
14z"/>
<path d="M845 4746 c-128 -59 -155 -257 -47 -348 66 -56 142 -60 213 -13 l39
25 0 -27 c0 -50 -21 -104 -54 -140 -28 -30 -39 -36 -76 -36 -36 0 -48 6 -72
32 -15 17 -28 38 -28 46 0 17 -46 21 -69 6 -12 -8 -10 -17 10 -57 32 -65 65
-87 137 -92 84 -6 142 21 182 85 43 67 53 113 54 233 0 151 -25 218 -102 271
-42 29 -141 37 -187 15z m144 -71 c25 -13 36 -30 55 -88 11 -34 -6 -97 -34
-127 -24 -26 -35 -30 -78 -30 -42 0 -55 5 -80 29 -53 53 -51 139 3 197 36 38
84 45 134 19z"/>
<path d="M7895 4748 c-66 -36 -124 -130 -94 -149 8 -5 26 -9 41 -9 20 0 28 7
36 29 17 47 50 71 99 71 120 0 127 -158 8 -177 -44 -7 -55 -17 -55 -50 0 -21
5 -23 48 -23 54 0 85 -17 107 -60 49 -95 -41 -200 -142 -167 -30 9 -43 22 -62
60 -21 42 -27 47 -56 47 -42 0 -47 -8 -34 -53 23 -85 102 -133 208 -125 111 8
181 82 181 190 0 59 -24 109 -62 129 -13 6 -25 13 -27 15 -2 2 10 19 28 39 27
31 31 43 31 90 0 47 -4 59 -32 91 -18 20 -47 43 -65 50 -39 17 -130 18 -158 2z"/>
<path d="M349 4531 c-71 -72 10 -183 99 -137 33 17 42 34 42 76 0 42 -9 59
-41 75 -42 22 -67 18 -100 -14z"/>
<path d="M8465 4525 c-69 -68 20 -181 107 -134 25 13 50 72 41 96 -23 65 -102
85 -148 38z"/>
<path d="M413 4053 c-24 -9 -13 -24 15 -21 15 2 26 8 25 13 -2 12 -23 16 -40
8z"/>
<path d="M8480 4046 c0 -10 9 -16 25 -16 14 0 25 5 25 10 0 6 -4 10 -9 10 -5
0 -16 3 -25 6 -11 4 -16 1 -16 -10z"/>
<path d="M480 3630 c-8 -5 -12 -12 -8 -15 9 -9 48 4 48 16 0 12 -21 11 -40 -1z"/>
<path d="M8410 3631 c0 -12 39 -25 48 -16 7 7 -17 25 -35 25 -7 0 -13 -4 -13
-9z"/>
<path d="M590 3220 c-8 -5 -12 -12 -8 -15 9 -9 48 4 48 16 0 12 -21 11 -40 -1z"/>
<path d="M8300 3221 c0 -12 39 -25 48 -16 7 7 -17 25 -35 25 -7 0 -13 -4 -13
-9z"/>
<path d="M1380 2958 c-60 -31 -90 -77 -90 -139 0 -42 5 -55 35 -88 l36 -39
-29 -18 c-55 -32 -80 -107 -61 -178 25 -91 92 -139 194 -140 74 0 127 24 169
76 58 74 41 200 -33 244 l-29 17 33 32 c127 128 -56 318 -225 233z m151 -77
c62 -63 21 -151 -71 -151 -43 0 -90 47 -90 90 0 46 47 90 95 90 27 0 44 -8 66
-29z m14 -251 c97 -91 7 -242 -120 -200 -62 20 -96 112 -64 171 31 60 135 75
184 29z"/>
<path d="M7361 2780 c-115 -164 -141 -207 -141 -236 l0 -34 130 0 129 0 3 -72
3 -73 40 0 40 0 3 72 3 72 37 3 c34 3 37 6 40 36 3 31 2 32 -37 32 l-41 0 -2
198 -3 197 -31 3 c-30 3 -36 -4 -173 -198z m119 -75 l0 -125 -85 0 c-47 0 -85
3 -85 6 0 6 163 244 168 244 1 0 2 -56 2 -125z"/>
<path d="M740 2820 c-8 -5 -12 -12 -8 -15 9 -9 48 4 48 16 0 12 -21 11 -40 -1z"/>
<path d="M8150 2821 c0 -12 39 -25 48 -16 7 7 -17 25 -35 25 -7 0 -13 -4 -13
-9z"/>
<path d="M895 2505 c-54 -53 -16 -145 60 -145 25 0 44 8 60 25 17 16 25 35 25
60 0 25 -8 44 -25 60 -16 17 -35 25 -60 25 -25 0 -44 -8 -60 -25z"/>
<path d="M7915 2495 c-54 -53 -16 -145 60 -145 49 0 85 36 85 85 0 49 -36 85
-85 85 -25 0 -44 -8 -60 -25z"/>
<path d="M1170 2085 c-21 -25 -1 -31 23 -7 17 18 18 22 5 22 -8 0 -21 -7 -28
-15z"/>
<path d="M7730 2091 c0 -13 29 -35 37 -28 7 8 -15 37 -28 37 -5 0 -9 -4 -9 -9z"/>
<path d="M1440 1755 c-7 -9 -10 -18 -7 -22 8 -7 37 15 37 28 0 14 -16 11 -30
-6z"/>
<path d="M7460 1760 c0 -11 39 -34 46 -27 6 6 -25 37 -37 37 -5 0 -9 -4 -9
-10z"/>
<path d="M2540 1590 l0 -40 140 0 c77 0 140 -2 140 -4 0 -2 -16 -28 -36 -57
-79 -115 -146 -295 -156 -414 l-3 -40 41 -3 41 -3 7 56 c15 131 99 325 191
443 21 28 35 56 35 74 l0 28 -200 0 -200 0 0 -40z"/>
<path d="M6046 1613 c-7 -25 -56 -297 -53 -299 1 0 16 -4 34 -7 22 -4 35 -1
44 9 35 42 116 57 168 29 53 -27 76 -111 47 -178 -47 -111 -180 -111 -216 -1
-12 35 -24 39 -67 28 -31 -9 -29 -40 4 -92 36 -55 91 -82 166 -82 30 0 68 5
84 11 38 14 81 56 104 101 23 45 26 156 5 196 -19 36 -65 78 -99 91 -36 14
-108 14 -143 1 -15 -6 -29 -9 -31 -6 -2 2 2 33 8 70 l12 65 121 3 121 3 3 38
3 37 -155 0 c-139 0 -155 -2 -160 -17z"/>
<path d="M1740 1455 c-7 -9 -10 -18 -7 -22 8 -7 37 15 37 28 0 14 -16 11 -30
-6z"/>
<path d="M7160 1461 c0 -13 29 -35 37 -28 7 8 -15 37 -28 37 -5 0 -9 -4 -9 -9z"/>
<path d="M2070 1189 c-7 -11 -9 -24 -5 -27 7 -7 35 25 35 40 0 16 -19 8 -30
-13z"/>
<path d="M6830 1203 c1 -14 30 -47 36 -41 8 8 -14 48 -26 48 -6 0 -10 -3 -10
-7z"/>
<path d="M4445 1195 c-5 -2 -22 -6 -38 -9 -15 -4 -45 -22 -67 -42 -121 -110
-119 -446 4 -534 74 -54 185 -50 249 8 32 29 59 93 64 151 12 139 -120 247
-244 200 -15 -6 -38 -20 -50 -31 -13 -12 -25 -20 -27 -17 -9 9 17 116 36 147
53 86 164 75 193 -19 6 -17 12 -19 43 -13 20 4 38 8 40 9 6 5 -29 79 -46 98
-9 11 -28 25 -42 32 -27 13 -98 26 -115 20z m85 -314 c33 -24 53 -85 44 -136
-9 -53 -60 -105 -103 -105 -75 0 -121 53 -121 137 0 62 17 94 60 116 40 20 82
16 120 -12z"/>
<path d="M2375 1015 c-31 -30 -33 -82 -4 -119 16 -21 29 -26 64 -26 35 0 48 5
64 26 47 60 10 144 -64 144 -25 0 -44 -8 -60 -25z"/>
<path d="M6429 1011 c-32 -33 -36 -58 -14 -100 16 -32 33 -41 79 -41 74 0 109
98 52 146 -38 33 -80 31 -117 -5z"/>
<path d="M2811 777 c-7 -9 -11 -24 -9 -34 3 -16 5 -15 17 5 15 29 10 50 -8 29z"/>
<path d="M6100 773 c0 -5 7 -18 15 -29 15 -18 15 -18 13 5 -3 23 -28 44 -28
24z"/>
<path d="M3207 623 c-4 -3 -7 -16 -7 -27 1 -21 1 -21 15 -2 8 11 15 23 15 28
0 10 -14 11 -23 1z"/>
<path d="M5708 609 c7 -18 22 -28 22 -14 0 3 0 12 0 20 0 8 -7 15 -15 15 -10
0 -12 -6 -7 -21z"/>
<path d="M3610 495 c0 -14 5 -25 10 -25 6 0 10 4 10 9 0 5 3 16 6 25 4 11 1
16 -10 16 -10 0 -16 -9 -16 -25z"/>
<path d="M5300 495 c0 -14 5 -25 10 -25 6 0 10 11 10 25 0 14 -4 25 -10 25 -5
0 -10 -11 -10 -25z"/>
<path d="M4405 475 c-33 -32 -34 -93 -2 -122 56 -53 147 -16 147 60 0 76 -93
115 -145 62z"/>
<path d="M4037 453 c-11 -10 -8 -53 3 -53 6 0 10 14 10 30 0 31 -2 35 -13 23z"/>
<path d="M4880 436 c0 -14 5 -28 10 -31 6 -4 10 7 10 24 0 17 -4 31 -10 31 -5
0 -10 -11 -10 -24z"/>
</g>
</svg>
