<?xml version="1.0" standalone="no"?>
<!DOCTYPE svg PUBLIC "-//W3C//DTD SVG 20010904//EN"
 "http://www.w3.org/TR/2001/REC-SVG-20010904/DTD/svg10.dtd">
<svg version="1.0" xmlns="http://www.w3.org/2000/svg"
 width="512.000000pt" height="512.000000pt" viewBox="0 0 512.000000 512.000000"
 preserveAspectRatio="xMidYMid meet">

<g transform="translate(0.000000,512.000000) scale(0.100000,-0.100000)"
fill="#000000" stroke="none">
<path d="M2315 3224 c-22 -2 -92 -9 -155 -14 -143 -13 -430 -55 -1130 -164
-598 -93 -681 -105 -755 -109 -42 -2 -50 -5 -53 -22 -2 -15 6 -24 30 -33 31
-11 130 -119 144 -157 7 -18 7 -18 -157 1 -79 9 -93 -31 -54 -148 l12 -36 -43
-11 c-24 -6 -44 -13 -44 -16 0 -3 18 -17 40 -31 l40 -26 -25 -30 c-42 -50 -19
-94 88 -169 61 -43 157 -99 170 -99 2 0 -4 24 -14 53 -72 208 72 466 307 547
81 29 207 29 288 0 158 -54 278 -187 316 -349 18 -77 8 -193 -24 -272 -14 -35
-22 -67 -18 -71 6 -6 1549 -28 1985 -28 l174 0 -20 58 c-104 303 122 622 441
622 133 0 224 -36 321 -126 140 -129 188 -340 117 -514 l-25 -63 147 7 c295
13 548 27 570 32 18 4 22 11 22 44 0 41 -26 120 -40 120 -4 0 -18 -24 -30 -54
l-22 -54 -73 -7 -74 -7 -55 38 c-31 22 -56 43 -56 49 0 5 36 45 80 87 92 90
101 92 204 53 80 -30 86 -30 86 -6 0 23 -95 111 -196 181 -71 49 -225 121
-453 211 -205 81 -396 128 -519 129 -26 0 -63 10 -94 26 -79 40 -261 110 -520
198 -183 63 -233 84 -221 92 19 12 -30 25 -192 49 -96 15 -437 27 -520 19z
m-118 -76 c-2 -7 -21 -66 -41 -132 l-37 -118 -32 5 c-24 3 -63 -10 -151 -49
-66 -29 -124 -58 -129 -63 -11 -11 81 -244 128 -321 38 -62 139 -191 159 -202
14 -8 176 -22 426 -38 215 -13 773 -40 776 -37 14 14 27 178 27 332 -1 218
-11 265 -58 265 -36 0 -23 18 32 42 37 16 42 22 32 34 -33 40 -149 74 -251 74
-46 0 -48 -2 -63 -37 -13 -31 -14 -43 -3 -77 11 -35 18 -42 48 -47 73 -13 -52
-9 -221 6 -174 16 -643 73 -671 81 -14 4 -11 21 29 141 l46 136 211 -6 c393
-11 661 -71 1054 -238 l173 -74 -113 -28 c-62 -15 -135 -31 -163 -35 -35 -6
-49 -12 -47 -22 20 -86 24 -147 19 -305 -6 -159 -23 -305 -39 -321 -11 -10
-1041 46 -1202 66 -61 7 -73 13 -108 46 -55 55 -154 197 -193 279 -50 105 -98
253 -91 281 5 18 30 36 104 73 53 28 92 50 86 50 -62 3 -448 91 -482 110 -20
11 153 67 298 95 205 41 457 60 447 34z m-613 -194 c50 -17 67 -37 47 -57 -8
-8 -28 -8 -78 0 -75 13 -104 33 -83 57 16 20 54 20 114 0z m3036 -402 c109
-38 137 -52 147 -72 19 -39 1 -36 -100 12 -103 50 -207 108 -192 107 6 0 71
-21 145 -47z"/>
<path d="M729 2657 c-127 -54 -198 -136 -229 -266 -37 -156 51 -336 199 -408
50 -25 67 -28 161 -28 94 0 111 3 161 28 70 34 142 109 177 185 23 49 27 70
27 152 0 84 -3 102 -28 152 -35 72 -104 140 -176 175 -82 39 -213 44 -292 10z
m111 -44 c0 -5 5 -57 10 -118 10 -105 10 -110 -10 -125 -14 -10 -20 -28 -22
-58 -1 -38 -10 -52 -76 -127 -62 -71 -77 -83 -92 -75 -19 10 -60 70 -60 86 0
6 41 27 90 49 50 22 87 41 82 43 -4 1 -49 -6 -100 -16 l-92 -19 -6 33 c-9 48
4 94 26 94 10 0 49 -7 85 -15 37 -9 72 -14 78 -12 5 1 -29 20 -76 42 -48 21
-87 44 -87 50 0 13 53 89 68 99 5 3 34 -22 63 -56 30 -33 65 -72 77 -87 l24
-26 -25 45 c-13 25 -39 70 -56 102 -35 62 -35 63 33 84 48 15 66 17 66 7z
m138 -13 c23 -10 42 -22 42 -25 0 -3 -10 -22 -23 -43 -13 -20 -38 -64 -56 -97
-36 -67 -42 -73 74 59 l52 58 37 -47 c20 -26 36 -53 36 -60 0 -6 -46 -33 -102
-58 -57 -26 -98 -46 -93 -47 6 0 50 9 99 20 123 27 123 27 131 -20 4 -22 4
-53 0 -69 l-6 -29 -111 28 c-61 16 -107 25 -102 21 5 -4 48 -25 97 -46 48 -22
87 -44 87 -51 0 -6 -16 -33 -37 -59 l-36 -48 -26 29 c-14 16 -50 56 -80 89
l-54 60 25 -45 c14 -25 40 -71 58 -103 18 -32 31 -59 29 -61 -2 -2 -21 -11
-43 -20 -52 -21 -86 -21 -86 2 0 9 -5 61 -10 116 -10 98 -10 98 15 118 34 27
34 72 -1 94 -23 16 -25 22 -20 63 3 25 8 79 12 119 7 83 15 87 92 52z m-130
-338 c10 -7 11 -31 2 -118 -5 -60 -10 -112 -10 -116 0 -5 -8 -8 -18 -8 -23 0
-112 30 -112 37 0 10 115 213 120 213 3 0 11 -4 18 -8z"/>
<path d="M3743 2612 c-73 -26 -126 -64 -172 -122 -54 -68 -76 -136 -76 -235 0
-71 4 -89 33 -147 66 -134 186 -210 332 -210 102 0 174 28 249 98 194 179 144
491 -97 602 -76 35 -194 41 -269 14z m101 -88 c3 -26 6 -66 6 -90 0 -23 5 -46
10 -49 6 -4 10 11 10 37 0 24 3 67 6 96 6 44 10 52 28 52 22 0 106 -35 106
-44 0 -3 -16 -33 -36 -68 -20 -35 -46 -79 -56 -98 l-20 -35 29 30 c15 17 51
56 79 88 l51 58 37 -42 c20 -24 36 -50 36 -59 0 -12 -30 -31 -95 -60 -52 -24
-94 -44 -92 -46 2 -2 49 6 106 18 88 19 104 20 112 7 9 -13 7 -114 -2 -123 -3
-3 -49 6 -103 20 -54 14 -100 23 -102 21 -2 -2 35 -21 84 -41 48 -21 90 -41
95 -45 9 -9 -46 -96 -66 -104 -10 -4 -27 7 -48 31 -18 20 -53 60 -77 87 l-46
50 31 -55 c18 -30 43 -75 57 -100 14 -25 26 -48 26 -51 0 -10 -77 -39 -104
-39 -21 0 -24 6 -30 53 -3 28 -6 71 -6 95 0 26 -4 41 -10 37 -5 -3 -10 -26
-10 -49 0 -24 -3 -64 -6 -90 -6 -40 -10 -46 -30 -46 -27 0 -104 29 -104 39 0
3 27 51 58 106 50 85 62 100 81 97 30 -5 61 25 61 58 0 33 -17 50 -51 50 -37
0 -53 -23 -46 -65 5 -33 1 -41 -70 -120 -41 -47 -79 -85 -83 -85 -20 0 -82 95
-68 104 1 1 47 22 100 46 54 24 97 45 95 46 -1 1 -52 -8 -112 -21 -60 -13
-111 -22 -113 -20 -8 8 -7 113 1 121 4 4 53 -2 109 -14 56 -12 103 -20 105
-18 2 2 -40 22 -92 46 -67 30 -95 48 -95 60 0 10 17 36 38 60 l37 42 74 -86
c41 -47 77 -86 79 -86 2 0 -5 15 -16 33 -72 120 -92 161 -84 169 12 12 81 37
103 38 12 0 18 -13 23 -46z"/>
</g>
</svg>
